<svg height="96" viewBox="0 0 512 96" width="512" xmlns="http://www.w3.org/2000/svg"><g fill="none"><g fill="#dcdce6"><path d="m0 0h96v96h-96z"/><path d="m104 0h96v96h-96z"/><path d="m208 0h96v96h-96z"/><path d="m312 0h96v96h-96z"/><path d="m416 0h96v96h-96z"/></g><path d="m48 64.7 14.6-3.7 6.1 18.8zm33.6-24.3h-25.7l-7.9-24.2-7.9 24.2h-25.7l20.8 15-7.9 24.2 20.8-15 12.8-9.2z" fill="#fff"/><path d="m152 64.7 14.6-3.7 6.1 18.8zm33.6-24.3h-25.7l-7.9-24.2-7.9 24.2h-25.7l20.8 15-7.9 24.2 20.8-15 12.8-9.2z" fill="#fff"/><path d="m256 64.7 14.6-3.7 6.1 18.8zm33.6-24.3h-25.7l-7.9-24.2-7.9 24.2h-25.7l20.8 15-7.9 24.2 20.8-15 12.8-9.2z" fill="#fff"/><path d="m360 64.7 14.6-3.7 6.1 18.8zm33.6-24.3h-25.7l-7.9-24.2-7.9 24.2h-25.7l20.8 15-7.9 24.2 20.8-15 12.8-9.2z" fill="#fff"/><path d="m464 64.7 14.6-3.7 6.1 18.8zm33.6-24.3h-25.7l-7.9-24.2-7.9 24.2h-25.7l20.8 15-7.9 24.2 20.8-15 12.8-9.2z" fill="#fff"/></g></svg>